<?xml version="1.0" encoding="UTF-8"?>
<!-- Generator: Adobe Illustrator 15.0.2, SVG Export Plug-In . SVG Version: 6.00 Build 0)  -->
<!DOCTYPE svg PUBLIC "-//W3C//DTD SVG 1.1//EN" "http://www.w3.org/Graphics/SVG/1.1/DTD/svg11.dtd">
<svg version="1.1" id="Layer_1" xmlns="http://www.w3.org/2000/svg" xmlns:xlink="http://www.w3.org/1999/xlink" x="0px" y="0px" width="512px" height="512px" viewBox="0 0 512 512" enable-background="new 0 0 512 512" xml:space="preserve">
<path d="M322.175,153.6L256,219.775L189.825,153.6L153.6,189.825L219.775,256L153.6,322.175l36.226,36.226L256,292.225  l66.175,66.176l36.226-36.226L292.225,256l66.176-66.175L322.175,153.6z M256,0C114.562,0,0,114.562,0,256s114.562,256,256,256  s256-114.562,256-256S397.438,0,256,0z M256,460.8C143.106,460.8,51.2,368.9,51.2,256c0-112.894,91.906-204.8,204.8-204.8  c112.9,0,204.8,91.906,204.8,204.8C460.8,368.9,368.9,460.8,256,460.8z"/>
</svg>