<?xml version="1.0" encoding="UTF-8"?>
<!-- Generator: Adobe Illustrator 15.0.2, SVG Export Plug-In . SVG Version: 6.00 Build 0)  -->
<!DOCTYPE svg PUBLIC "-//W3C//DTD SVG 1.1//EN" "http://www.w3.org/Graphics/SVG/1.1/DTD/svg11.dtd">
<svg version="1.1" id="Layer_1" xmlns="http://www.w3.org/2000/svg" xmlns:xlink="http://www.w3.org/1999/xlink" x="0px" y="0px" width="512px" height="511.965px" viewBox="0 0 512 511.965" enable-background="new 0 0 512 511.965" xml:space="preserve">
<path d="M507.77,392.015L371.71,255.973L507.728,119.94c5.639-5.639,5.639-14.771,0-20.405L412.444,4.227  c-5.639-5.636-14.777-5.636-20.417,0L255.989,140.259L119.972,4.227c-5.412-5.419-14.994-5.419-20.413,0L4.25,99.521  c-2.706,2.706-4.229,6.383-4.229,10.205c0,3.825,1.523,7.502,4.229,10.208l136.039,136.039L4.229,392.028  C1.523,394.735,0,398.404,0,402.23c0,3.825,1.523,7.509,4.229,10.201l95.293,95.311c2.707,2.707,6.391,4.223,10.227,4.223  c3.812,0,7.48-1.516,10.188-4.223l136.053-136.06l136.06,136.046c2.826,2.819,6.496,4.236,10.208,4.236  c3.705,0,7.396-1.417,10.216-4.236l95.305-95.297C513.409,406.792,513.409,397.668,507.77,392.015z"/>
</svg>